:version 1.10
:name ASF
:units
  mass 1
  length 1
  angle deg
:documentation
  ASF file generated by Kaydara
:root
  axis xyz
  order  tx ty tz rx ry rz
  position 0 0 0
  orientation 0 0 0
:bonedata
  begin
    id 1
    name lfemurDummy
    direction 0.61522 -0.761478 0.204097
    length 5.68318
    axis 0 -0 0 xyz
  end
  begin
    id 2
    name lfemur
    direction 0.34202 -0.939693 -5.84747e-008
    length 16.9147
    axis 0 -0 20 xyz
    dof rx ry rz
    limits( -inf , inf )
( -inf , inf )
( -inf , inf )

  end
  begin
    id 3
    name ltibia
    direction 0.34202 -0.939693 1.20839e-009
    length 18.0532
    axis 0 -0 20 xyz
    dof rz ry rx
    limits( -inf , inf )
( -inf , inf )
( -inf , inf )

  end
  begin
    id 4
    name lfoot
    direction 0.0841971 -0.23133 0.969225
    length 5.23822
    axis -90 7.62852e-016 20 xyz
    dof ry rx rz
    limits( -inf , inf )
( -inf , inf )
( -inf , inf )

  end
  begin
    id 5
    name ltoes
    direction 0 0 0
    length 0
    axis 0 0 0 xyz
    dof rz ry rx
    limits( -inf , inf )
( -inf , inf )
( -inf , inf )

  end
  begin
    id 6
    name rfemurDummy
    direction -0.625247 -0.75382 0.202044
    length 5.74091
    axis 0 -0 0 xyz
  end
  begin
    id 7
    name rfemur
    direction -0.34202 -0.939693 -1.47013e-008
    length 16.4922
    axis 0 -0 -20 xyz
    dof rx ry rz
    limits( -inf , inf )
( -inf , inf )
( -inf , inf )

  end
  begin
    id 8
    name rtibia
    direction -0.34202 -0.939693 -7.74345e-010
    length 18.2421
    axis 0 -0 -20 xyz
    dof rz ry rx
    limits( -inf , inf )
( -inf , inf )
( -inf , inf )

  end
  begin
    id 9
    name rfoot
    direction -0.124331 -0.341598 0.931586
    length 5.45787
    axis -90 -7.62852e-016 -20 xyz
    dof ry rx rz
    limits( -inf , inf )
( -inf , inf )
( -inf , inf )

  end
  begin
    id 10
    name rtoes
    direction 0 0 0
    length 0
    axis 0 0 0 xyz
    dof rz ry rx
    limits( -inf , inf )
( -inf , inf )
( -inf , inf )

  end
  begin
    id 11
    name lowerbackDummy
    direction 0 0 0
    length 0
    axis 0 -0 0 xyz
  end
  begin
    id 12
    name lowerback
    direction -0.0218484 0.994884 -0.0986304
    length 4.45607
    axis 0 -0 0 xyz
    dof rx ry rz
    limits( -inf , inf )
( -inf , inf )
( -inf , inf )

  end
  begin
    id 13
    name upperback
    direction -0.00973057 0.999717 -0.0217111
    length 4.47449
    axis 0 -0 0 xyz
    dof rx ry rz
    limits( -inf , inf )
( -inf , inf )
( -inf , inf )

  end
  begin
    id 14
    name thorax
    direction -0.000928171 0.999699 0.0245198
    length 4.50973
    axis 0 -0 0 xyz
    dof rx ry rz
    limits( -inf , inf )
( -inf , inf )
( -inf , inf )

  end
  begin
    id 15
    name rclavicle
    direction -0.9009 0.425937 -0.0834055
    length 7.28587
    axis 0 -0 0 xyz
    dof rx ry rz
    limits( -inf , inf )
( -inf , inf )
( -inf , inf )

  end
  begin
    id 16
    name rhumerus
    direction -1 -2.23604e-007 -1.42637e-007
    length 13.5704
    axis 180 30 90 xyz
    dof rx ry rz
    limits( -inf , inf )
( -inf , inf )
( -inf , inf )

  end
  begin
    id 17
    name rradius
    direction -1 5.68281e-008 -4.4952e-007
    length 8.06782
    axis 180 30 90 xyz
    dof rz ry rx
    limits( -inf , inf )
( -inf , inf )
( -inf , inf )

  end
  begin
    id 18
    name rwrist
    direction -1 1.51393e-007 1.38143e-007
    length 4.03391
    axis -90 -90 0 xyz
    dof rz rx ry
    limits( -inf , inf )
( -inf , inf )
( -inf , inf )

  end
  begin
    id 19
    name rthumb
    direction 0 0 0
    length 0
    axis 0 0 0 xyz
    dof ry rx rz
    limits( -inf , inf )
( -inf , inf )
( -inf , inf )

  end
  begin
    id 20
    name rhand
    direction -1 -3.34077e-007 -5.59631e-007
    length 1.29744
    axis -90 -90 0 xyz
    dof ry rx rz
    limits( -inf , inf )
( -inf , inf )
( -inf , inf )

  end
  begin
    id 21
    name rfingers
    direction 0 0 0
    length 0
    axis 0 0 0 xyz
    dof rz ry rx
    limits( -inf , inf )
( -inf , inf )
( -inf , inf )

  end
  begin
    id 22
    name lclavicle
    direction 0.940017 0.332249 -0.0773232
    length 8.29589
    axis 0 -0 0 xyz
    dof rx ry rz
    limits( -inf , inf )
( -inf , inf )
( -inf , inf )

  end
  begin
    id 23
    name lhumerus
    direction 1 7.41158e-008 -1.44768e-008
    length 12.0042
    axis 180 -30 -90 xyz
    dof rx ry rz
    limits( -inf , inf )
( -inf , inf )
( -inf , inf )

  end
  begin
    id 24
    name lradius
    direction 1 -1.32972e-007 3.10821e-007
    length 8.1902
    axis 180 -30 -90 xyz
    dof rz ry rx
    limits( -inf , inf )
( -inf , inf )
( -inf , inf )

  end
  begin
    id 25
    name lwrist
    direction 1 3.08957e-007 4.01394e-007
    length 4.09509
    axis -90 90 0 xyz
    dof rz rx ry
    limits( -inf , inf )
( -inf , inf )
( -inf , inf )

  end
  begin
    id 26
    name lthumb
    direction 0 0 0
    length 0
    axis 0 0 0 xyz
    dof ry rx rz
    limits( -inf , inf )
( -inf , inf )
( -inf , inf )

  end
  begin
    id 27
    name lhand
    direction 1 -1.64125e-007 -6.99514e-007
    length 1.37229
    axis -90 90 0 xyz
    dof ry rx rz
    limits( -inf , inf )
( -inf , inf )
( -inf , inf )

  end
  begin
    id 28
    name lfingers
    direction 0 0 0
    length 0
    axis 0 0 0 xyz
    dof rz ry rx
    limits( -inf , inf )
( -inf , inf )
( -inf , inf )

  end
  begin
    id 29
    name lowerneck
    direction -0.030798 0.998024 0.0547665
    length 3.93918
    axis 0 -0 0 xyz
    dof rx ry rz
    limits( -inf , inf )
( -inf , inf )
( -inf , inf )

  end
  begin
    id 30
    name upperneck
    direction 0.0531588 0.996611 -0.0627736
    length 3.95491
    axis 0 -0 0 xyz
    dof rx ry rz
    limits( -inf , inf )
( -inf , inf )
( -inf , inf )

  end
  begin
    id 31
    name head
    direction 0 0 0
    length 0
    axis 0 0 0 xyz
    dof rx ry rz
    limits( -inf , inf )
( -inf , inf )
( -inf , inf )

  end
:hierarchy
  begin
    root lfemurDummy rfemurDummy lowerbackDummy
    lfemurDummy lfemur
    lfemur ltibia
    ltibia lfoot
    lfoot ltoes
    rfemurDummy rfemur
    rfemur rtibia
    rtibia rfoot
    rfoot rtoes
    lowerbackDummy lowerback
    lowerback upperback
    upperback thorax
    thorax rclavicle lclavicle lowerneck
    rclavicle rhumerus
    rhumerus rradius
    rradius rwrist
    rwrist rthumb rhand
    rhand rfingers
    lclavicle lhumerus
    lhumerus lradius
    lradius lwrist
    lwrist lthumb lhand
    lhand lfingers
    lowerneck upperneck
    upperneck head
  end

:SAMPLES-PER-SECOND 30
:FULLY-SPECIFIED
:DEGREES
65
root  4.21817772 39.50066754 1.825071132 -7.197021484 -24.69799805 7.986999512
lowerback  11.34109974 0.6198400259 1.980350018
upperback  4.708720207 1.062620044 4.139229774
thorax  -1.483559966 0.4899620116 3.056269884
lowerneck  -2.177759886 5.322070122 -1.638030052
upperneck  12.89789963 7.465489864 -1.793640018
head  4.67361021 3.496020079 0.03069490008
lclavicle  0 -9.442270133e-015 7.951389973e-016
lhumerus  0.50534302 -22.32570076 87.89080048
lradius  2.548326706e-031 -2.444355751e-031 136.1929932
lwrist  -7.062250077e-031 -1.765562519e-031 3.306410074
lhand  -1.496451383e-031 -27.76390076 20.11240005
lfingers  90 7.125020027 -90
lthumb  89.89689403 5.08795885 91.16245106
rclavicle  0 -9.442270133e-015 7.951389973e-016
rhumerus  7.243619919 24.34930038 -82.08760071
rradius  -2.48210957e-031 2.511568458e-031 134.6620026
rwrist  7.062250077e-031 -0 -7.544229984
rhand  -7.920061211e-032 -33.2840004 9.303460121
rfingers  -90 -7.125020027 -90
rthumb  -92.93752616 -24.25625642 -97.11982154
rfemur  -11.49030018 19.90439987 -1.150869966
rtibia  -0 0 51.90779877
rfoot  -4.669185047e-032 -19.03370094 -6.0417099
rtoes  5.373923086 19.29304026 -105.8922705
lfemur  -24.60810089 6.266379833 -16.88579941
ltibia  -0 0 52.92089844
lfoot  5.565423558e-032 -7.533659935 1.587679982
ltoes  -4.250644065 -19.5611806 -102.515957
66
root  4.244866709 39.71222104 1.807953241 -6.817993164 -26.39399719 7.690002441
lowerback  11.46189976 0.6462420225 1.427829981
upperback  4.547140121 1.047279954 3.960200071
thorax  -1.724709988 0.4790450037 3.181610107
lowerneck  -2.204610109 5.647059917 -1.674669981
upperneck  12.75549984 7.845940113 -1.355550051
head  4.603250027 3.7042799 0.198210001
lclavicle  0 -9.442270133e-015 7.951389973e-016
lhumerus  0.6008819938 -21.97750092 87.26409912
lradius  2.555568599e-031 -2.436783366e-031 136.3630066
lwrist  -3.531125038e-031 -1.765562519e-031 3.140880108
lhand  -1.496451383e-031 -27.76390076 20.11240005
lfingers  90 7.125020027 -90
lthumb  89.89689403 5.08795885 91.16245106
rclavicle  0 -9.442270133e-015 7.951389973e-016
rhumerus  6.986289978 24.43689919 -82.10119629
rradius  -2.511958432e-031 2.481714905e-031 135.3470001
rwrist  0 -0 -9.024559975
rhand  -7.920061211e-032 -33.2840004 9.303460121
rfingers  -90 -7.125020027 -90
rthumb  -92.93752616 -24.25625642 -97.11982154
rfemur  -12.31910038 19.33329964 -0.5714049935
rtibia  -0 0 51.62469864
rfoot  -0 -19.48270035 -7.167280197
rtoes  5.373923086 19.29304026 -105.8922705
lfemur  -24.50499916 5.765399933 -16.12680054
ltibia  -0 0 52.66180038
lfoot  5.000132643e-032 -6.7333498 0.4608449936
ltoes  -4.250644065 -19.5611806 -102.515957
67
root  4.26626656 39.89733298 1.781275516 -6.284973145 -27.97999573 7.267028809
lowerback  11.39729977 0.7536020279 1.111809969
upperback  4.42054987 1.153329968 3.73281002
thorax  -1.82852006 0.5319740176 3.108230114
lowerneck  -2.464299917 5.846270084 -1.673149943
upperneck  12.62930012 8.059069633 -0.8747400045
head  4.583640099 3.832309961 0.3738960028
lclavicle  0 -9.442270133e-015 7.951389973e-016
lhumerus  1.214630008 -22.07589912 86.41870117
lradius  2.561217998e-031 -2.430844792e-031 136.4960022
lwrist  -1.059337512e-030 -3.531125038e-031 2.657069921
lhand  -1.496451383e-031 -27.76390076 20.11240005
lfingers  90 7.125020027 -90
lthumb  89.89689403 5.08795885 91.16245106
rclavicle  0 -9.442270133e-015 7.951389973e-016
rhumerus  6.898920059 24.30010033 -82.02349854
rradius  -2.528233304e-031 2.465132937e-031 135.723999
rwrist  7.062250077e-031 -1.765562519e-031 -9.959970474
rhand  -7.920061211e-032 -33.2840004 9.303460121
rfingers  -90 -7.125020027 -90
rthumb  -92.93752616 -24.25625642 -97.11982154
rfemur  -13.20790005 18.43510056 0.2036799937
rtibia  -0 0 51.67919922
rfoot  -0 -20.03079987 -7.22796011
rtoes  5.373923086 19.29304026 -105.8922705
lfemur  -24.64450073 5.275330067 -15.30070019
ltibia  -0 0 52.65340042
lfoot  4.4377721e-032 -5.944809914 -0.9180510044
ltoes  -4.250644065 -19.5611806 -102.515957
68
root  4.28088894 40.02822215 1.756086687 -5.807006836 -29.33700562 6.799987793
lowerback  11.29399967 0.8172889948 0.8215479851
upperback  4.277880192 1.204450011 3.506210089
thorax  -1.92482996 0.5585020185 3.028620005
lowerneck  -2.729700089 6.005809784 -1.639089942
upperneck  12.55669975 8.218740463 -0.3966920078
head  4.586200237 3.934760094 0.5422899723
lclavicle  0 -9.442270133e-015 7.951389973e-016
lhumerus  1.82562995 -22.08469963 85.55619812
lradius  2.565795552e-031 -2.426012618e-031 136.6040039
lwrist  -7.062250077e-031 -3.531125038e-031 2.378190041
lhand  -1.496451383e-031 -27.76390076 20.11240005
lfingers  90 7.125020027 -90
lthumb  89.89689403 5.08795885 91.16245106
rclavicle  0 -9.442270133e-015 7.951389973e-016
rhumerus  6.689249992 24.91729927 -81.86630249
rradius  -2.517755762e-031 2.475833185e-031 135.4810028
rwrist  7.062250077e-031 -1.765562519e-031 -7.683700085
rhand  -7.920061211e-032 -33.2840004 9.303460121
rfingers  -90 -7.125020027 -90
rthumb  -92.93752616 -24.25625642 -97.11982154
rfemur  -13.88119984 17.23889923 1.159610033
rtibia  -0 0 52.15940094
rfoot  -9.428882973e-032 -20.5685997 -6.923649788
rtoes  5.373923086 19.29304026 -105.8922705
lfemur  -24.69720078 4.968860149 -14.61089993
ltibia  -0 0 52.87390137
lfoot  4.431580755e-032 -5.118889809 -2.300479889
ltoes  -4.250644065 -19.5611806 -102.515957
